# Blender 4.5.3 LTS
# www.blender.org
mtllib McDog2.mtl
o Copy_of_minecraft_dog
v 0.908946 1.552712 0.372519
v 0.898804 0.379958 1.217686
v 0.908946 0.379958 0.372519
v 0.896776 -0.011185 1.386720
v 0.908946 -0.011185 0.372519
v 0.898804 0.379620 1.217686
v 0.908946 0.379620 0.372519
v 0.896776 1.552712 1.386720
v 0.663341 1.748284 1.554232
v 0.663341 1.357140 1.554232
v 0.665368 1.552712 1.385241
v -0.232198 1.327399 -0.987074
v -0.230170 1.353035 -1.156050
v -0.232198 1.357140 -0.987074
v -0.230170 1.357140 -1.156050
v 0.689541 -0.011354 -0.643372
v 0.689541 -1.379849 -0.643372
v 0.693598 -0.011354 -0.981101
v 0.693598 -1.379849 -0.981101
v 0.665368 0.184217 1.385241
v -0.230642 0.966166 -1.116496
v -0.230464 0.966166 -1.116495
v -0.230170 0.966166 -1.156050
v -0.230645 0.966166 -1.116496
v -0.232198 1.327418 -0.987074
v -0.232198 1.327402 -0.987074
v 0.695626 1.357140 -1.150134
v 0.693598 1.357140 -0.981101
v 0.693598 0.966166 -0.981101
v 0.695626 0.966166 -1.150134
v 0.659284 0.770763 1.892299
v 0.659284 0.184217 1.892299
v 0.693598 0.379958 -0.981101
v 0.695626 0.379958 -1.150134
v 0.659284 1.357140 1.892299
v -0.232199 -0.011354 -0.986848
v -0.695012 -0.011354 -0.989890
v -0.236255 -0.011354 -0.648950
v -0.699069 -0.011354 -0.651993
v -0.236255 -1.379849 -0.648950
v 0.230784 -0.011354 -0.984143
v 0.226727 -1.379849 -0.646245
v 0.665369 1.552712 1.385198
v 0.665369 1.748284 1.385198
v 0.667397 -0.011354 1.216165
v 0.667397 -1.379849 1.216165
v 0.671454 -0.011354 0.878267
v 0.671454 -1.379849 0.878267
v -0.717324 -0.011354 0.869477
v -0.254342 -0.011354 0.872351
v -0.254342 -1.379849 0.872351
v -0.260428 1.357140 1.379325
v -0.260428 1.552712 1.379325
v -0.260428 1.357140 1.379339
v -0.262456 1.748284 1.548316
v -0.262456 1.357140 1.548316
v -0.717324 -1.379849 0.869477
v -0.016850 0.379620 0.366603
v -0.723410 0.184217 1.376409
v -0.029020 0.184217 1.380804
v -0.029020 1.357140 1.380804
v -0.491918 1.357140 1.377846
v -0.723410 1.357140 1.376409
v -0.491918 1.552712 1.377846
v -0.723410 1.748284 1.376409
v -0.725438 1.748284 1.545442
v -0.725438 1.357140 1.545442
v 0.208472 -1.379849 0.875394
v 0.208472 -0.011354 0.875394
v -0.952788 0.379620 1.205854
v -0.954817 -0.011185 1.374887
v -0.952788 0.379958 1.205854
v -0.954817 1.552712 1.374887
v -0.003325 0.379620 2.395168
v -0.159007 0.379620 2.394213
v 0.074597 0.379620 2.395680
v 0.230784 0.966166 -0.984143
v -0.232198 0.966166 -0.987074
v -0.003325 0.575192 2.395168
v -0.692984 0.379958 -1.159093
v -0.711239 0.379958 0.362166
v -0.692984 0.966166 -1.159093
v -0.711239 1.357140 0.362166
v -0.272598 0.379620 2.393483
v -0.272598 0.184217 2.393483
v 0.232812 0.966166 -1.153120
v 0.232305 0.966166 -1.113454
v -0.272598 0.379620 2.393482
v -0.272598 0.184217 2.393482
v -0.692984 1.357140 -1.159093
v -0.230202 0.985120 -1.156051
v -0.000707 1.327391 -0.985580
v -0.231995 1.327232 -0.987072
v 0.074597 0.575192 2.395680
v -0.156810 0.770763 2.394159
v -0.156810 0.575192 2.394159
v -0.942646 0.379620 0.360687
v -0.711239 0.379620 0.362166
v -0.942646 -0.011185 0.360687
v 0.074598 0.379620 2.395646
v 0.074598 0.575192 2.395646
v -0.699069 -1.379849 -0.651993
v -0.016850 1.357140 0.366603
v -0.695012 -1.379849 -0.989890
v -0.232199 -1.379849 -0.986848
v -0.388216 0.184217 2.392807
v -0.388216 0.379620 2.392807
v -0.388216 0.575192 2.392807
v -0.260427 1.552712 1.379282
v -0.260427 1.748284 1.379282
v -0.388216 0.770763 2.392807
v 0.226727 -0.011354 -0.646245
v 0.230784 -1.379849 -0.984143
v -0.382300 0.184217 1.885706
v -0.266512 0.770763 1.886383
v 0.230784 1.327391 -0.984143
v 0.230784 1.357140 -0.984143
v 0.306004 0.184217 2.397202
v 0.306004 0.379620 2.397202
v -0.266512 1.357140 1.886383
v 0.196470 1.357140 1.889256
v 0.312089 0.184217 1.890101
v -0.382300 0.770763 1.885706
v -0.729495 0.184217 1.883509
v -0.729495 0.770763 1.883509
v -0.497919 1.357140 1.884861
v -0.497919 0.770763 1.884861
v -0.729495 1.357140 1.883509
v -0.721381 -0.011354 1.207375
v -0.258399 -0.011354 1.210249
v -0.258399 -1.379849 1.210249
v -0.721381 -1.379849 1.207375
v 0.433878 1.357140 1.383762
v 0.202386 1.357140 1.382325
v 0.433878 1.552712 1.383762
v 0.202386 1.748284 1.382325
v 0.200527 1.357140 1.551358
v 0.200527 1.748284 1.551358
v 0.306004 0.770763 2.397202
v 0.312089 0.770763 1.890101
v -0.692984 -0.011185 -1.159093
v 0.695626 0.379620 -1.150134
v 0.695626 -0.011185 -1.150134
v 0.196470 0.770763 1.889256
v -0.232198 1.327232 -0.987074
v -0.230644 0.966213 -1.116595
v -0.711239 -0.011185 0.362166
v 0.204415 -0.011354 1.213291
v 0.204415 -1.379849 1.213291
v -0.692984 0.379620 -1.159093
v -0.016850 0.379958 0.366603
v -0.942646 0.379958 0.360687
v -0.942646 1.552712 0.360687
v 0.677539 1.357140 0.370998
v 0.677539 0.379958 0.370998
v 0.677539 0.379620 0.370998
v -0.016850 -0.011185 0.366603
v 0.677539 -0.011185 0.370998
v -0.218139 1.666471 -2.157573
v -0.218421 1.678473 -2.133909
v -0.217825 1.662415 -2.183774
v -0.216852 1.721069 -2.264571
v -0.213774 1.639595 -2.521840
v -0.216997 1.697405 -2.252570
v -0.216799 1.747270 -2.268797
v -0.217497 1.828068 -2.209974
v -0.215295 2.000820 -2.392530
v -0.217215 1.816066 -2.233639
v -0.216989 1.797134 -2.252570
v -0.216847 1.773470 -2.264571
v -0.217811 1.832293 -2.183774
v -0.218785 1.773470 -2.102976
v -0.218639 1.797134 -2.114977
v -0.218410 1.816066 -2.133909
v -0.218826 1.860141 -2.098919
v -0.218835 1.747270 -2.098919
v -0.218126 1.828068 -2.157573
v -0.217226 1.678473 -2.233639
v -0.217510 1.666471 -2.209974
v -0.218789 1.721069 -2.102976
v -0.218647 1.697405 -2.114977
v 0.232812 0.966166 -1.153177
v 0.232812 1.357140 -1.153177
v 0.247518 2.000820 -2.389656
v 0.249040 1.639595 -2.518967
v -0.230170 0.985120 -1.156050
v 0.244240 1.697405 -2.114977
v 0.244099 1.721069 -2.102976
v 0.244745 1.666471 -2.157573
v 0.244465 1.678473 -2.133909
v 0.245368 1.666471 -2.209974
v 0.245650 1.678473 -2.233639
v 0.245876 1.697405 -2.252570
v 0.246020 1.721069 -2.264571
v 0.246071 1.747270 -2.268797
v 0.246022 1.773470 -2.264571
v 0.245880 1.797134 -2.252570
v 0.244752 1.828068 -2.157573
v 0.245064 1.832293 -2.183774
v 0.244471 1.816066 -2.133909
v 0.244245 1.797134 -2.114977
v 0.244101 1.773470 -2.102976
v 0.245375 1.828068 -2.209974
v 0.245656 1.816066 -2.233639
v 0.245057 1.662415 -2.183774
v 0.244052 1.747270 -2.098919
vn 0.9999 -0.0000 0.0120
vn 0.9999 -0.0000 0.0137
vn 0.9999 -0.0000 0.0139
vn -0.0013 1.0000 -0.0000
vn -0.0005 1.0000 0.0003
vn -0.0000 1.0000 -0.0000
vn -0.0000 -0.0000 1.0000
vn 0.9999 -0.0000 0.0119
vn -0.0064 -0.0000 1.0000
vn -0.0066 -0.0000 1.0000
vn -0.0062 -0.0000 1.0000
vn 0.9997 -0.0000 0.0263
vn 0.0062 -0.0000 -1.0000
vn 0.9998 -0.0000 0.0196
vn 0.9999 -0.0000 0.0122
vn 0.9999 -0.0000 0.0165
vn 0.0064 -0.0000 -1.0000
vn 0.0063 -0.0000 -1.0000
vn -0.0000 -1.0000 -0.0000
vn -0.9999 -0.0000 -0.0120
vn -0.9999 -0.0000 -0.0126
vn -0.9999 -0.0000 -0.0127
vn -0.9999 -0.0000 -0.0128
vn -0.0000 1.0000 -0.0001
vn -0.0052 1.0000 -0.0007
vn -0.0012 1.0000 -0.0000
vn -0.0061 -0.0000 1.0000
vn -0.0061 1.0000 -0.0000
vn -0.0053 1.0000 -0.0000
vn -0.0014 1.0000 -0.0000
vn -1.0000 -0.0000 -0.0000
vn 0.0066 -0.0000 -1.0000
vn 0.0065 -0.0000 -1.0000
vn -0.9999 -0.0000 -0.0163
vn -0.0000 -1.0000 0.0001
vn -0.0058 -0.0000 1.0000
vn 0.9999 -0.0000 0.0131
vn 0.9999 -0.0000 0.0129
vn -0.9999 -0.0000 -0.0117
vn -0.0063 -0.0000 1.0000
vn -0.9999 -0.0000 -0.0110
vn -0.0056 -0.3374 0.9414
vn -0.0063 -0.3375 0.9413
vn -0.0060 -0.3373 0.9414
vn -0.0064 -0.3375 0.9413
vn -0.0000 -0.9020 -0.4318
vn 0.0016 -0.9018 -0.4321
vn 0.0015 -0.9018 -0.4322
vn -0.0017 1.0000 -0.0000
vn -0.9999 0.0001 -0.0120
vn -0.9999 0.0002 -0.0134
vn -0.9999 0.0002 -0.0120
vn -0.9999 -0.0000 -0.0125
vn -0.9998 -0.0000 -0.0196
vn -0.9999 -0.0000 -0.0153
vn -0.9999 -0.0000 -0.0164
vn 0.0058 0.3370 -0.9415
vn -0.0060 -0.3372 0.9414
vn -0.0058 -0.3370 0.9415
vn -0.0027 0.9018 0.4321
vn -0.9999 -0.0000 -0.0124
vn -0.0058 -0.3371 0.9415
vn 0.0027 -0.9018 -0.4321
vn 0.0015 -0.9014 -0.4329
vn 0.0008 -0.9010 -0.4338
vn -0.0000 -0.9007 -0.4344
vn -0.9999 0.0001 -0.0142
vn 0.0058 0.3371 -0.9415
vn -0.0000 -0.3575 0.9339
vn 0.0001 -0.3575 0.9339
vn 0.0003 -0.8902 -0.4555
vn -0.0000 -0.8902 -0.4555
vn 0.9999 -0.0001 0.0119
vn -0.9999 -0.0000 -0.0159
vn 0.9999 -0.0013 0.0120
vn 0.9999 -0.0016 0.0120
vn 0.9999 -0.0023 0.0120
vn 0.9999 -0.0002 0.0118
vn 0.0028 -0.9018 -0.4321
vn -0.0000 0.7071 -0.7071
vn -0.0000 0.9882 0.1530
vn -0.0000 0.8919 0.4523
vn -0.0000 0.7071 0.7071
vn -0.0000 0.4523 0.8919
vn -0.0000 -0.8919 -0.4523
vn -0.0000 -0.7071 -0.7071
vn -0.0000 -0.4523 -0.8919
vn -0.0000 0.4523 -0.8919
vn -0.0000 0.8919 -0.4523
vn -0.0000 0.9882 -0.1530
vn -0.0000 0.1592 0.9872
vn -0.0000 -0.1592 0.9872
vn -0.0000 -0.4523 0.8919
vn -0.0000 -0.7071 0.7071
vn -0.0000 -0.8919 0.4523
vn -0.0000 -0.9872 0.1592
vn -0.0000 -0.9872 -0.1592
vn -0.0000 -0.1530 -0.9882
vn -0.0000 0.1530 -0.9882
s 1
usemtl Material.001
f 1//1 2//2 3//1
f 4//3 5//1 6//3
f 7//1 6//3 5//1
f 6//3 2//2 4//3
f 8//1 4//3 2//2
f 1//1 8//1 2//2
f 9//1 10//1 11//1
f 12//1 13//1 14//1
f 15//1 14//1 13//1
f 16//1 17//1 18//1
f 19//1 18//1 17//1
f 11//1 10//1 20//1
f 21//4 22//4 23//5
f 24//6 21//4 23//5
s 0
f 14//7 25//7 26//7
f 14//7 26//7 12//7
s 1
f 27//1 28//1 29//8
f 27//1 29//8 30//1
f 10//1 31//1 20//1
f 32//1 20//1 31//1
f 30//1 29//8 33//8
f 30//1 33//8 34//1
f 10//1 35//1 31//1
f 11//9 20//9 8//9
f 36//6 37//6 38//6
f 4//9 8//9 20//9
f 39//10 40//10 38//10
f 18//6 41//6 16//6
f 42//11 17//11 16//11
f 43//12 44//12 11//12
f 9//1 11//1 44//1
f 11//6 8//6 43//6
f 45//1 46//1 47//1
f 48//1 47//1 46//1
f 49//13 50//13 51//13
f 52//14 53//15 54//16
f 55//1 56//1 53//15
f 49//13 51//13 57//13
f 58//17 7//17 5//17
f 59//18 54//18 60//18
f 60//18 54//18 61//18
f 62//13 63//13 64//13
f 65//13 64//13 63//13
f 63//19 62//19 54//19
f 52//19 54//19 62//19
f 59//18 63//18 54//18
f 56//11 55//11 66//11
f 66//20 65//20 63//20
f 66//20 63//20 67//20
f 67//20 63//20 59//20
f 54//16 53//15 56//1
f 66//11 67//11 56//11
f 68//13 69//13 48//13
f 47//13 48//13 69//13
f 66//6 55//6 65//6
f 54//6 56//6 61//6
f 70//21 71//22 72//23
f 73//20 72//23 71//22
f 74//6 75//24 76//6
f 29//6 77//25 78//26
f 79//27 75//27 74//27
f 80//20 81//20 82//20
f 81//20 83//20 82//20
f 75//9 84//9 85//9
f 86//28 87//29 77//25
f 77//25 87//29 22//30
f 84//31 88//31 89//31
f 84//31 89//31 85//31
f 86//28 23//5 87//29
f 90//32 91//32 82//32
f 28//33 29//33 92//33
f 93//32 92//33 78//33
f 94//10 95//11 79//10
f 78//33 92//33 29//33
f 95//11 96//11 79//10
f 97//17 98//17 99//17
f 100//6 74//6 76//6
f 94//34 101//34 100//34
f 94//34 100//34 76//34
f 74//27 100//27 101//27
f 74//27 101//27 79//27
f 102//20 39//20 37//20
f 1//17 3//17 103//17
f 79//35 101//35 94//35
f 102//20 37//20 104//20
f 40//19 102//19 104//19
f 105//19 40//19 104//19
f 106//36 89//36 88//36
f 107//27 75//27 108//27
f 79//27 108//27 75//27
f 15//32 13//32 90//32
f 23//32 82//32 91//32
f 88//6 84//6 107//6
f 107//19 84//19 75//19
f 15//6 90//6 14//6
f 79//6 96//6 108//6
f 109//37 110//38 53//15
f 55//1 53//15 110//38
f 88//36 107//36 106//36
f 111//36 108//36 96//11
f 112//20 41//20 113//20
f 42//20 112//20 113//20
f 111//36 96//11 95//11
f 19//19 17//19 113//19
f 106//19 114//19 89//19
f 95//6 115//6 111//6
f 41//32 18//32 113//32
f 77//10 29//10 116//10
f 29//10 28//10 116//10
f 117//10 116//10 28//10
f 19//32 113//32 18//32
f 85//9 118//9 75//9
f 119//6 76//6 75//24
f 76//10 119//10 94//10
f 56//6 120//6 121//6
f 60//19 122//19 114//19
f 106//39 107//39 114//39
f 107//39 108//39 114//39
f 123//39 114//39 108//39
f 111//39 123//39 108//39
f 124//40 123//40 125//40
f 123//40 124//40 114//40
f 124//19 59//19 114//19
f 123//6 111//6 115//6
f 126//11 125//36 127//11
f 125//6 123//6 127//6
f 127//6 123//6 115//6
f 125//36 126//11 128//36
f 115//9 120//9 127//11
f 126//11 127//11 120//9
f 59//19 60//19 114//19
f 59//20 124//20 125//20
f 128//20 67//20 125//20
f 126//6 67//6 128//6
f 59//20 125//20 67//20
f 126//6 56//6 67//6
f 120//6 56//6 126//6
f 64//9 73//9 62//9
f 71//9 60//9 62//9
f 49//6 129//6 130//6
f 49//6 130//6 50//6
f 129//11 131//11 130//11
f 97//6 70//6 98//6
f 65//13 110//13 64//13
f 109//13 64//13 110//13
f 65//6 55//6 110//6
f 129//11 132//11 131//11
f 133//13 134//13 135//13
f 136//13 135//13 134//13
f 137//11 10//11 138//11
f 9//11 138//11 10//11
f 138//41 136//41 134//41
f 138//41 134//41 137//41
f 9//6 136//6 138//6
f 119//9 75//9 118//9
f 139//10 94//10 119//10
f 95//11 94//10 139//10
f 89//19 118//19 85//19
f 140//1 119//1 122//1
f 118//1 122//1 119//1
f 139//1 119//1 140//1
f 141//33 142//33 143//33
f 139//6 140//6 144//6
f 115//6 95//6 144//6
f 34//19 33//19 80//19
f 145//42 24//42 93//42
f 22//43 93//44 21//45
f 122//40 32//40 140//40
f 31//40 140//40 32//40
f 21//46 146//47 22//48
f 32//19 122//19 20//19
f 114//19 122//19 89//19
f 31//6 144//6 140//6
f 31//10 121//9 144//9
f 21//49 78//26 22//30
f 77//25 22//30 78//26
f 21//49 24//6 78//26
f 82//6 23//5 86//28
f 22//4 87//29 23//5
f 78//33 145//32 93//32
f 35//10 121//9 31//10
f 28//33 92//33 14//33
f 139//6 144//6 95//6
f 90//6 83//6 14//6
f 103//6 14//6 83//6
f 104//32 37//32 105//32
f 36//32 105//32 37//32
f 115//9 144//9 121//9
f 10//6 137//6 35//6
f 71//9 62//9 73//9
f 39//6 38//6 37//6
f 120//9 115//9 121//9
f 121//6 35//6 137//6
f 121//6 137//6 56//6
f 60//9 4//9 20//9
f 118//19 89//19 122//19
f 20//19 122//19 60//19
f 99//19 147//19 71//19
f 69//6 148//6 45//6
f 69//6 45//6 47//6
f 134//6 61//6 137//6
f 133//6 61//6 134//6
f 61//6 56//6 137//6
f 90//20 82//20 83//20
f 148//11 149//11 45//11
f 98//20 150//20 147//20
f 141//20 147//20 150//20
f 133//9 135//9 61//9
f 53//9 61//9 135//9
f 81//19 80//19 151//19
f 41//6 112//6 16//6
f 112//11 42//11 16//11
f 142//6 150//6 58//6
f 109//6 53//6 43//6
f 43//6 8//6 1//6
f 81//17 152//17 83//17
f 153//17 83//17 152//17
f 7//6 58//6 6//6
f 72//17 2//17 6//17
f 98//17 147//17 99//17
f 154//40 103//40 155//40
f 151//40 155//40 103//40
f 136//13 44//13 135//13
f 43//13 135//13 44//13
f 152//19 81//19 72//19
f 136//6 9//6 44//6
f 156//40 157//40 158//40
f 64//6 153//6 73//6
f 64//6 109//6 153//6
f 149//11 46//11 45//11
f 50//1 130//1 131//1
f 51//1 50//1 131//1
f 152//20 72//23 153//20
f 73//20 153//20 72//23
f 70//21 97//20 99//20
f 70//21 99//20 71//22
f 102//10 40//10 39//10
f 151//19 33//19 155//19
f 103//6 154//6 28//6
f 132//20 129//20 49//20
f 132//20 49//20 57//20
f 131//19 132//19 57//19
f 131//19 57//19 51//19
f 58//17 5//17 157//17
f 72//19 151//19 2//19
f 158//19 157//19 143//19
f 153//6 109//6 1//6
f 4//19 71//19 157//19
f 98//6 70//6 58//6
f 72//17 6//17 70//17
f 135//6 43//6 53//6
f 69//20 68//20 148//20
f 149//20 148//20 68//20
f 42//19 113//19 17//19
f 46//19 149//19 68//19
f 46//19 68//19 48//19
f 147//19 141//19 157//19
f 158//8 143//8 156//8
f 142//8 156//8 143//8
f 155//8 29//8 154//8
f 33//8 29//8 155//8
f 28//8 154//8 29//8
f 151//17 103//17 3//17
f 151//19 3//19 2//19
f 159//50 26//51 160//50
f 161//50 26//51 159//50
f 162//50 163//50 164//50
f 165//50 163//50 162//50
f 166//50 167//50 168//50
f 169//50 167//50 170//50
f 171//50 167//50 166//50
f 169//50 168//50 167//50
f 172//50 25//50 173//50
f 174//50 173//50 175//50
f 176//50 25//50 172//50
f 177//50 175//50 171//50
f 174//50 175//50 177//50
f 167//50 171//50 175//50
f 178//50 164//50 163//50
f 163//50 165//50 170//50
f 163//50 170//50 167//50
f 179//52 163//50 161//50
f 178//50 163//50 179//52
f 163//50 26//51 161//50
f 175//50 173//50 25//50
f 176//50 180//50 25//50
f 160//50 26//51 181//53
f 180//50 181//50 25//50
f 25//33 14//33 92//33
f 151//19 80//19 33//19
f 14//6 103//6 28//6
f 98//6 58//6 150//6
f 30//32 182//32 183//32
f 30//32 183//32 27//32
f 30//19 86//19 182//19
f 156//6 142//6 58//6
f 83//17 153//17 103//17
f 1//17 103//17 153//17
f 81//19 151//19 72//19
f 43//6 1//6 109//6
f 6//6 58//6 70//6
f 38//1 40//1 36//1
f 182//54 86//55 183//56
f 86//55 116//20 183//56
f 105//1 36//1 40//1
f 117//6 28//6 183//6
f 27//6 183//6 28//6
f 143//19 157//19 141//19
f 30//33 34//33 86//33
f 167//57 184//57 163//57
f 93//44 87//58 92//59
f 167//60 175//60 116//60
f 25//61 181//53 26//51
f 52//9 62//9 60//9
f 61//9 52//9 60//9
f 22//43 87//58 93//44
f 34//33 80//33 86//33
f 82//33 86//33 80//33
f 53//9 52//9 61//9
f 116//62 92//59 87//58
f 71//9 4//9 60//9
f 150//33 142//33 141//33
f 185//63 186//64 163//65
f 91//66 163//65 186//64
f 5//19 4//19 157//19
f 146//47 185//63 22//48
f 147//19 157//19 71//19
f 26//51 163//50 13//67
f 91//50 13//67 163//50
f 156//40 58//40 157//40
f 13//32 91//32 90//32
f 186//17 23//32 91//32
f 185//68 163//57 184//57
f 116//20 86//55 77//20
f 117//20 183//56 116//20
f 21//69 93//70 24//69
f 24//71 146//72 21//72
f 187//8 188//73 116//8
f 116//8 87//8 187//8
f 189//8 190//8 87//8
f 190//8 187//8 87//8
f 87//8 185//8 191//8
f 192//73 191//8 185//8
f 13//67 12//74 26//51
f 192//73 185//8 193//73
f 194//8 193//73 185//8
f 24//1 145//1 78//1
f 186//1 146//75 23//76
f 24//77 23//76 146//75
f 195//8 185//8 196//8
f 196//8 184//8 197//8
f 198//78 199//8 184//8
f 116//8 200//8 184//8
f 198//78 184//8 200//8
f 201//73 116//8 202//73
f 201//73 200//8 116//8
f 203//8 184//8 199//8
f 203//8 204//8 184//8
f 204//8 197//8 184//8
f 194//8 185//8 195//8
f 184//8 196//8 185//8
f 191//8 205//73 87//8
f 205//73 189//8 87//8
f 206//8 116//8 188//73
f 206//8 202//73 116//8
f 87//79 22//48 185//63
f 146//47 186//64 185//63
f 184//60 167//60 116//60
f 25//60 92//60 175//60
f 92//60 116//60 175//60
f 190//80 160//80 187//80
f 161//81 205//81 179//81
f 179//82 191//82 178//82
f 178//83 192//83 164//83
f 193//84 162//84 164//84
f 200//85 174//85 177//85
f 174//86 200//86 201//86
f 174//86 201//86 173//86
f 201//87 202//87 173//87
f 180//88 188//88 181//88
f 181//80 187//80 160//80
f 160//89 190//89 159//89
f 159//90 189//90 161//90
f 191//81 179//81 205//81
f 191//82 192//82 178//82
f 195//91 165//91 194//91
f 196//92 170//92 165//92
f 196//92 165//92 195//92
f 169//93 170//93 197//93
f 196//93 197//93 170//93
f 197//94 204//94 169//94
f 168//94 169//94 204//94
f 168//95 204//95 203//95
f 168//95 203//95 166//95
f 171//96 166//96 199//96
f 203//96 199//96 166//96
f 199//97 198//97 171//97
f 177//97 171//97 198//97
f 198//85 200//85 177//85
f 172//87 173//87 202//87
f 176//98 172//98 206//98
f 202//98 206//98 172//98
f 180//99 176//99 206//99
f 187//88 181//88 188//88
f 159//89 190//89 189//89
f 205//90 161//90 189//90
f 193//83 164//83 192//83
f 194//84 162//84 193//84
f 162//91 194//91 165//91
f 188//99 180//99 206//99
