# Blender 4.5.3 LTS
# www.blender.org
mtllib McDog1.mtl
o Copy_of_minecraft_dog
v 0.908946 1.552712 0.372519
v 0.898804 0.379958 1.217686
v 0.908946 0.379958 0.372519
v 0.896776 -0.011185 1.386720
v 0.908946 -0.011185 0.372519
v 0.898804 0.379620 1.217686
v 0.908946 0.379620 0.372519
v 0.896776 1.552712 1.386720
v 0.663341 1.748284 1.554232
v 0.663341 1.357140 1.554232
v 0.665368 1.552712 1.385241
v -0.232198 1.327399 -0.987074
v -0.230170 1.353035 -1.156050
v -0.232198 1.357140 -0.987074
v -0.230170 1.357140 -1.156050
v 0.689541 -0.011354 -0.643372
v 0.689541 -1.379849 -0.643372
v 0.693598 -0.011354 -0.981101
v 0.693598 -1.379849 -0.981101
v 0.665368 0.184217 1.385241
v -0.230642 0.966166 -1.116496
v -0.230464 0.966166 -1.116495
v -0.230170 0.966166 -1.156050
v -0.230645 0.966166 -1.116496
v -0.232198 1.327418 -0.987074
v -0.232198 1.327402 -0.987074
v 0.695626 1.357140 -1.150134
v 0.693598 1.357140 -0.981101
v 0.693598 0.966166 -0.981101
v 0.695626 0.966166 -1.150134
v 0.659284 0.770763 1.892299
v 0.659284 0.184217 1.892299
v 0.693598 0.379958 -0.981101
v 0.695626 0.379958 -1.150134
v 0.659284 1.357140 1.892299
v -0.232199 -0.011354 -0.986848
v -0.695012 -0.011354 -0.989890
v -0.236255 -0.011354 -0.648950
v -0.699069 -0.011354 -0.651993
v -0.236255 -1.379849 -0.648950
v 0.230784 -0.011354 -0.984143
v 0.226727 -1.379849 -0.646245
v 0.665369 1.552712 1.385198
v 0.665369 1.748284 1.385198
v 0.667397 -0.011354 1.216165
v 0.667397 -1.379849 1.216165
v 0.671454 -0.011354 0.878267
v 0.671454 -1.379849 0.878267
v -0.717324 -0.011354 0.869477
v -0.254342 -0.011354 0.872351
v -0.254342 -1.379849 0.872351
v -0.260428 1.357140 1.379325
v -0.260428 1.552712 1.379325
v -0.260428 1.357140 1.379339
v -0.262456 1.748284 1.548316
v -0.262456 1.357140 1.548316
v -0.717324 -1.379849 0.869477
v -0.016850 0.379620 0.366603
v -0.723410 0.184217 1.376409
v -0.029020 0.184217 1.380804
v -0.029020 1.357140 1.380804
v -0.491918 1.357140 1.377846
v -0.723410 1.357140 1.376409
v -0.491918 1.552712 1.377846
v -0.723410 1.748284 1.376409
v -0.725438 1.748284 1.545442
v -0.725438 1.357140 1.545442
v 0.208472 -1.379849 0.875394
v 0.208472 -0.011354 0.875394
v -0.952788 0.379620 1.205854
v -0.954817 -0.011185 1.374887
v -0.952788 0.379958 1.205854
v -0.954817 1.552712 1.374887
v -0.003325 0.379620 2.395168
v -0.159007 0.379620 2.394213
v 0.074597 0.379620 2.395680
v 0.230784 0.966166 -0.984143
v -0.232198 0.966166 -0.987074
v -0.003325 0.575192 2.395168
v -0.692984 0.379958 -1.159093
v -0.711239 0.379958 0.362166
v -0.692984 0.966166 -1.159093
v -0.711239 1.357140 0.362166
v -0.272598 0.379620 2.393483
v -0.272598 0.184217 2.393483
v 0.232812 0.966166 -1.153120
v 0.232305 0.966166 -1.113454
v -0.272598 0.379620 2.393482
v -0.272598 0.184217 2.393482
v -0.692984 1.357140 -1.159093
v -0.230202 0.985120 -1.156051
v -0.000707 1.327391 -0.985580
v -0.231995 1.327232 -0.987072
v 0.074597 0.575192 2.395680
v -0.156810 0.770763 2.394159
v -0.156810 0.575192 2.394159
v -0.942646 0.379620 0.360687
v -0.711239 0.379620 0.362166
v -0.942646 -0.011185 0.360687
v 0.074598 0.379620 2.395646
v 0.074598 0.575192 2.395646
v -0.699069 -1.379849 -0.651993
v -0.016850 1.357140 0.366603
v -0.695012 -1.379849 -0.989890
v -0.232199 -1.379849 -0.986848
v -0.388216 0.184217 2.392807
v -0.388216 0.379620 2.392807
v -0.388216 0.575192 2.392807
v -0.260427 1.552712 1.379282
v -0.260427 1.748284 1.379282
v -0.388216 0.770763 2.392807
v 0.226727 -0.011354 -0.646245
v 0.230784 -1.379849 -0.984143
v -0.382300 0.184217 1.885706
v -0.266512 0.770763 1.886383
v 0.230784 1.327391 -0.984143
v 0.230784 1.357140 -0.984143
v 0.306004 0.184217 2.397202
v 0.306004 0.379620 2.397202
v -0.266512 1.357140 1.886383
v 0.196470 1.357140 1.889256
v 0.312089 0.184217 1.890101
v -0.382300 0.770763 1.885706
v -0.729495 0.184217 1.883509
v -0.729495 0.770763 1.883509
v -0.497919 1.357140 1.884861
v -0.497919 0.770763 1.884861
v -0.729495 1.357140 1.883509
v -0.721381 -0.011354 1.207375
v -0.258399 -0.011354 1.210249
v -0.258399 -1.379849 1.210249
v -0.721381 -1.379849 1.207375
v 0.433878 1.357140 1.383762
v 0.202386 1.357140 1.382325
v 0.433878 1.552712 1.383762
v 0.202386 1.748284 1.382325
v 0.200527 1.357140 1.551358
v 0.200527 1.748284 1.551358
v 0.306004 0.770763 2.397202
v 0.312089 0.770763 1.890101
v -0.692984 -0.011185 -1.159093
v 0.695626 0.379620 -1.150134
v 0.695626 -0.011185 -1.150134
v 0.196470 0.770763 1.889256
v -0.232198 1.327232 -0.987074
v -0.230644 0.966213 -1.116595
v -0.711239 -0.011185 0.362166
v 0.204415 -0.011354 1.213291
v 0.204415 -1.379849 1.213291
v -0.692984 0.379620 -1.159093
v -0.016850 0.379958 0.366603
v -0.942646 0.379958 0.360687
v -0.942646 1.552712 0.360687
v 0.677539 1.357140 0.370998
v 0.677539 0.379958 0.370998
v 0.677539 0.379620 0.370998
v -0.016850 -0.011185 0.366603
v 0.677539 -0.011185 0.370998
v -0.218139 1.666471 -2.157573
v -0.218421 1.678473 -2.133909
v -0.217825 1.662415 -2.183774
v -0.216852 1.721069 -2.264571
v -0.213774 1.639595 -2.521840
v -0.216997 1.697405 -2.252570
v -0.216799 1.747270 -2.268797
v -0.217497 1.828068 -2.209974
v -0.215295 2.000820 -2.392530
v -0.217215 1.816066 -2.233639
v -0.216989 1.797134 -2.252570
v -0.216847 1.773470 -2.264571
v -0.217811 1.832293 -2.183774
v -0.218785 1.773470 -2.102976
v -0.218639 1.797134 -2.114977
v -0.218410 1.816066 -2.133909
v -0.218826 1.860141 -2.098919
v -0.218835 1.747270 -2.098919
v -0.218126 1.828068 -2.157573
v -0.217226 1.678473 -2.233639
v -0.217510 1.666471 -2.209974
v -0.218789 1.721069 -2.102976
v -0.218647 1.697405 -2.114977
v 0.232812 0.966166 -1.153177
v 0.232812 1.357140 -1.153177
v 0.247518 2.000820 -2.389656
v 0.249040 1.639595 -2.518967
v -0.230170 0.985120 -1.156050
v 0.244240 1.697405 -2.114977
v 0.244099 1.721069 -2.102976
v 0.244745 1.666471 -2.157573
v 0.244465 1.678473 -2.133909
v 0.245368 1.666471 -2.209974
v 0.245650 1.678473 -2.233639
v 0.245876 1.697405 -2.252570
v 0.246020 1.721069 -2.264571
v 0.246071 1.747270 -2.268797
v 0.246022 1.773470 -2.264571
v 0.245880 1.797134 -2.252570
v 0.244752 1.828068 -2.157573
v 0.245064 1.832293 -2.183774
v 0.244471 1.816066 -2.133909
v 0.244245 1.797134 -2.114977
v 0.244101 1.773470 -2.102976
v 0.245375 1.828068 -2.209974
v 0.245656 1.816066 -2.233639
v 0.245057 1.662415 -2.183774
v 0.244052 1.747270 -2.098919
vn 0.9999 -0.0000 0.0120
vn 0.9999 -0.0000 0.0153
vn -0.0019 1.0000 -0.0000
vn -0.0000 1.0000 -0.0000
vn -0.0000 -0.0000 1.0000
vn -0.0064 -0.0000 1.0000
vn -0.0066 -0.0000 1.0000
vn -0.0062 -0.0000 1.0000
vn 0.9997 -0.0000 0.0263
vn 0.0062 -0.0000 -1.0000
vn 0.9998 -0.0000 0.0196
vn 0.0064 -0.0000 -1.0000
vn 0.0063 -0.0000 -1.0000
vn 0.0001 -1.0000 -0.0000
vn -0.0003 -1.0000 -0.0000
vn -0.9999 -0.0000 -0.0120
vn -0.9999 -0.0000 -0.0134
vn -0.0061 -0.0000 1.0000
vn -0.0106 0.9999 -0.0000
vn -1.0000 -0.0000 -0.0000
vn 0.0066 -0.0000 -1.0000
vn 0.0065 -0.0000 -1.0000
vn -0.9999 -0.0000 -0.0163
vn -0.0000 -1.0000 -0.0000
vn -0.0058 -0.0000 1.0000
vn 0.9999 -0.0000 0.0131
vn -0.9999 -0.0000 -0.0117
vn -0.0063 -0.0000 1.0000
vn -0.9999 -0.0000 -0.0110
vn -0.0056 -0.3374 0.9414
vn -0.0064 -0.3375 0.9413
vn -0.0000 -0.9020 -0.4318
vn -0.0024 1.0000 -0.0000
vn 0.0001 1.0000 -0.0000
vn 0.9999 -0.0000 0.0119
vn -0.9999 0.0001 -0.0120
vn -0.9998 -0.0000 -0.0196
vn 0.0058 0.3371 -0.9415
vn -0.0058 -0.3371 0.9415
vn -0.0027 0.9018 0.4321
vn -0.9999 -0.0000 -0.0125
vn -0.0062 -0.3374 0.9413
vn 0.0027 -0.9018 -0.4321
vn -0.0000 -0.9007 -0.4344
vn 0.0026 -0.9018 -0.4321
vn -0.0000 -0.3575 0.9339
vn -0.0000 -0.8902 -0.4555
vn -0.9999 -0.0000 -0.0159
vn 0.9999 -0.0023 0.0120
vn 0.0028 -0.9018 -0.4321
vn -0.0000 0.7071 -0.7071
vn -0.0000 0.9882 0.1530
vn -0.0000 0.8919 0.4523
vn -0.0000 0.7071 0.7071
vn -0.0000 0.4523 0.8919
vn -0.0000 -0.8919 -0.4523
vn -0.0000 -0.7071 -0.7071
vn -0.0000 -0.4523 -0.8919
vn -0.0000 0.4523 -0.8919
vn -0.0000 0.8919 -0.4523
vn -0.0000 0.9882 -0.1530
vn -0.0000 0.1592 0.9872
vn -0.0000 -0.1592 0.9872
vn -0.0000 -0.4523 0.8919
vn -0.0000 -0.7071 0.7071
vn -0.0000 -0.8919 0.4523
vn -0.0000 -0.9872 0.1592
vn -0.0000 -0.9872 -0.1592
vn -0.0000 -0.1530 -0.9882
vn -0.0000 0.1530 -0.9882
s 0
f 1//1 2//1 3//1
f 4//1 5//1 6//1
f 7//1 6//1 5//1
f 6//2 2//2 4//2
f 8//1 4//1 2//1
f 1//1 8//1 2//1
f 9//1 10//1 11//1
f 12//1 13//1 14//1
f 15//1 14//1 13//1
f 16//1 17//1 18//1
f 19//1 18//1 17//1
f 11//1 10//1 20//1
f 21//3 22//3 23//3
f 24//4 21//4 23//4
f 14//5 25//5 26//5
f 14//5 26//5 12//5
f 27//1 28//1 29//1
f 27//1 29//1 30//1
f 10//1 31//1 20//1
f 32//1 20//1 31//1
f 30//1 29//1 33//1
f 30//1 33//1 34//1
f 10//1 35//1 31//1
f 11//6 20//6 8//6
f 36//4 37//4 38//4
f 4//6 8//6 20//6
f 39//7 40//7 38//7
f 18//4 41//4 16//4
f 42//8 17//8 16//8
f 43//9 44//9 11//9
f 9//1 11//1 44//1
f 11//4 8//4 43//4
f 45//1 46//1 47//1
f 48//1 47//1 46//1
f 49//10 50//10 51//10
f 52//11 53//11 54//11
f 55//1 56//1 53//1
f 49//10 51//10 57//10
f 58//12 7//12 5//12
f 59//13 54//13 60//13
f 60//13 54//13 61//13
f 62//10 63//10 64//10
f 65//10 64//10 63//10
f 63//14 62//14 54//14
f 52//15 54//15 62//15
f 59//13 63//13 54//13
f 56//8 55//8 66//8
f 66//16 65//16 63//16
f 66//16 63//16 67//16
f 67//16 63//16 59//16
f 54//1 53//1 56//1
f 66//8 67//8 56//8
f 68//10 69//10 48//10
f 47//10 48//10 69//10
f 66//4 55//4 65//4
f 54//4 56//4 61//4
f 70//17 71//17 72//17
f 73//16 72//16 71//16
f 74//4 75//4 76//4
f 29//4 77//4 78//4
f 79//18 75//18 74//18
f 80//16 81//16 82//16
f 81//16 83//16 82//16
f 75//6 84//6 85//6
f 86//19 87//19 77//19
f 77//4 87//4 22//4
f 84//20 88//20 89//20
f 84//20 89//20 85//20
f 86//4 23//4 87//4
f 90//21 91//21 82//21
f 28//22 29//22 92//22
f 93//22 92//22 78//22
f 94//7 95//7 79//7
f 78//22 92//22 29//22
f 95//7 96//7 79//7
f 97//12 98//12 99//12
f 100//4 74//4 76//4
f 94//23 101//23 100//23
f 94//23 100//23 76//23
f 74//18 100//18 101//18
f 74//18 101//18 79//18
f 102//16 39//16 37//16
f 1//12 3//12 103//12
f 79//24 101//24 94//24
f 102//16 37//16 104//16
f 40//24 102//24 104//24
f 105//24 40//24 104//24
f 106//25 89//25 88//25
f 107//18 75//18 108//18
f 79//18 108//18 75//18
f 15//21 13//21 90//21
f 23//21 82//21 91//21
f 88//4 84//4 107//4
f 107//24 84//24 75//24
f 15//4 90//4 14//4
f 79//4 96//4 108//4
f 109//26 110//26 53//26
f 55//1 53//1 110//1
f 88//25 107//25 106//25
f 111//25 108//25 96//25
f 112//16 41//16 113//16
f 42//16 112//16 113//16
f 111//25 96//25 95//25
f 19//24 17//24 113//24
f 106//24 114//24 89//24
f 95//4 115//4 111//4
f 41//21 18//21 113//21
f 77//7 29//7 116//7
f 29//7 28//7 116//7
f 117//7 116//7 28//7
f 19//21 113//21 18//21
f 85//6 118//6 75//6
f 119//4 76//4 75//4
f 76//7 119//7 94//7
f 56//4 120//4 121//4
f 60//24 122//24 114//24
f 106//27 107//27 114//27
f 107//27 108//27 114//27
f 123//27 114//27 108//27
f 111//27 123//27 108//27
f 124//28 123//28 125//28
f 123//28 124//28 114//28
f 124//24 59//24 114//24
f 123//4 111//4 115//4
f 126//25 125//25 127//25
f 125//4 123//4 127//4
f 127//4 123//4 115//4
f 125//25 126//25 128//25
f 115//7 120//7 127//7
f 126//7 127//7 120//7
f 59//24 60//24 114//24
f 59//16 124//16 125//16
f 128//16 67//16 125//16
f 126//4 67//4 128//4
f 59//16 125//16 67//16
f 126//4 56//4 67//4
f 120//4 56//4 126//4
f 64//6 73//6 62//6
f 71//6 60//6 62//6
f 49//4 129//4 130//4
f 49//4 130//4 50//4
f 129//8 131//8 130//8
f 97//4 70//4 98//4
f 65//10 110//10 64//10
f 109//10 64//10 110//10
f 65//4 55//4 110//4
f 129//8 132//8 131//8
f 133//10 134//10 135//10
f 136//10 135//10 134//10
f 137//8 10//8 138//8
f 9//8 138//8 10//8
f 138//29 136//29 134//29
f 138//29 134//29 137//29
f 9//4 136//4 138//4
f 119//6 75//6 118//6
f 139//7 94//7 119//7
f 95//7 94//7 139//7
f 89//24 118//24 85//24
f 140//1 119//1 122//1
f 118//1 122//1 119//1
f 139//1 119//1 140//1
f 141//22 142//22 143//22
f 139//4 140//4 144//4
f 115//4 95//4 144//4
f 34//24 33//24 80//24
f 145//30 24//30 93//30
f 22//31 93//31 21//31
f 122//28 32//28 140//28
f 31//28 140//28 32//28
f 21//32 146//32 22//32
f 32//24 122//24 20//24
f 114//24 122//24 89//24
f 31//4 144//4 140//4
f 31//7 121//7 144//7
f 21//33 78//33 22//33
f 77//4 22//4 78//4
f 21//4 24//4 78//4
f 82//4 23//4 86//4
f 22//4 87//4 23//4
f 78//21 145//21 93//21
f 35//7 121//7 31//7
f 28//22 92//22 14//22
f 139//4 144//4 95//4
f 90//4 83//4 14//4
f 103//4 14//4 83//4
f 104//21 37//21 105//21
f 36//21 105//21 37//21
f 115//8 144//8 121//8
f 10//4 137//4 35//4
f 71//6 62//6 73//6
f 39//4 38//4 37//4
f 120//8 115//8 121//8
f 121//4 35//4 137//4
f 121//4 137//4 56//4
f 60//6 4//6 20//6
f 118//24 89//24 122//24
f 20//24 122//24 60//24
f 99//24 147//24 71//24
f 69//4 148//4 45//4
f 69//4 45//4 47//4
f 134//4 61//4 137//4
f 133//4 61//4 134//4
f 61//4 56//4 137//4
f 90//16 82//16 83//16
f 148//8 149//8 45//8
f 98//16 150//16 147//16
f 141//16 147//16 150//16
f 133//6 135//6 61//6
f 53//6 61//6 135//6
f 81//24 80//24 151//24
f 41//4 112//4 16//4
f 112//8 42//8 16//8
f 142//4 150//4 58//4
f 109//34 53//34 43//34
f 43//4 8//4 1//4
f 81//12 152//12 83//12
f 153//12 83//12 152//12
f 7//4 58//4 6//4
f 72//12 2//12 6//12
f 98//12 147//12 99//12
f 154//28 103//28 155//28
f 151//28 155//28 103//28
f 136//10 44//10 135//10
f 43//10 135//10 44//10
f 152//24 81//24 72//24
f 136//4 9//4 44//4
f 156//28 157//28 158//28
f 64//4 153//4 73//4
f 64//4 109//4 153//4
f 149//8 46//8 45//8
f 50//1 130//1 131//1
f 51//1 50//1 131//1
f 152//16 72//16 153//16
f 73//16 153//16 72//16
f 70//16 97//16 99//16
f 70//16 99//16 71//16
f 102//7 40//7 39//7
f 151//24 33//24 155//24
f 103//4 154//4 28//4
f 132//16 129//16 49//16
f 132//16 49//16 57//16
f 131//24 132//24 57//24
f 131//24 57//24 51//24
f 58//12 5//12 157//12
f 72//24 151//24 2//24
f 158//24 157//24 143//24
f 153//4 109//4 1//4
f 4//24 71//24 157//24
f 98//4 70//4 58//4
f 72//12 6//12 70//12
f 135//4 43//4 53//4
f 69//16 68//16 148//16
f 149//16 148//16 68//16
f 42//24 113//24 17//24
f 46//24 149//24 68//24
f 46//24 68//24 48//24
f 147//24 141//24 157//24
f 158//35 143//35 156//35
f 142//35 156//35 143//35
f 155//35 29//35 154//35
f 33//35 29//35 155//35
f 28//35 154//35 29//35
f 151//12 103//12 3//12
f 151//24 3//24 2//24
f 159//36 26//36 160//36
f 161//36 26//36 159//36
f 162//36 163//36 164//36
f 165//36 163//36 162//36
f 166//36 167//36 168//36
f 169//36 167//36 170//36
f 171//36 167//36 166//36
f 169//36 168//36 167//36
f 172//36 25//36 173//36
f 174//36 173//36 175//36
f 176//36 25//36 172//36
f 177//36 175//36 171//36
f 174//36 175//36 177//36
f 167//36 171//36 175//36
f 178//36 164//36 163//36
f 163//36 165//36 170//36
f 163//36 170//36 167//36
f 179//36 163//36 161//36
f 178//36 163//36 179//36
f 163//36 26//36 161//36
f 175//36 173//36 25//36
f 176//36 180//36 25//36
f 160//36 26//36 181//36
f 180//36 181//36 25//36
f 25//22 14//22 92//22
f 151//24 80//24 33//24
f 14//4 103//4 28//4
f 98//4 58//4 150//4
f 30//21 182//21 183//21
f 30//21 183//21 27//21
f 30//24 86//24 182//24
f 156//4 142//4 58//4
f 83//12 153//12 103//12
f 1//12 103//12 153//12
f 81//24 151//24 72//24
f 43//4 1//4 109//4
f 6//4 58//4 70//4
f 38//1 40//1 36//1
f 182//37 86//37 183//37
f 86//16 116//16 183//16
f 105//1 36//1 40//1
f 117//4 28//4 183//4
f 27//4 183//4 28//4
f 143//24 157//24 141//24
f 30//22 34//22 86//22
f 167//38 184//38 163//38
f 93//39 87//39 92//39
f 167//40 175//40 116//40
f 25//41 181//41 26//41
f 52//6 62//6 60//6
f 61//6 52//6 60//6
f 22//42 87//42 93//42
f 34//22 80//22 86//22
f 82//22 86//22 80//22
f 53//6 52//6 61//6
f 116//39 92//39 87//39
f 71//6 4//6 60//6
f 150//22 142//22 141//22
f 185//43 186//43 163//43
f 91//44 163//44 186//44
f 5//24 4//24 157//24
f 146//45 185//45 22//45
f 147//24 157//24 71//24
f 26//36 163//36 13//36
f 91//36 13//36 163//36
f 156//28 58//28 157//28
f 13//21 91//21 90//21
f 186//12 23//12 91//12
f 185//38 163//38 184//38
f 116//16 86//16 77//16
f 117//16 183//16 116//16
f 21//46 93//46 24//46
f 24//47 146//47 21//47
f 187//35 188//35 116//35
f 116//35 87//35 187//35
f 189//35 190//35 87//35
f 190//35 187//35 87//35
f 87//35 185//35 191//35
f 192//35 191//35 185//35
f 13//48 12//48 26//48
f 192//35 185//35 193//35
f 194//35 193//35 185//35
f 24//1 145//1 78//1
f 186//1 146//1 23//1
f 24//49 23//49 146//49
f 195//35 185//35 196//35
f 196//35 184//35 197//35
f 198//35 199//35 184//35
f 116//35 200//35 184//35
f 198//35 184//35 200//35
f 201//35 116//35 202//35
f 201//35 200//35 116//35
f 203//35 184//35 199//35
f 203//35 204//35 184//35
f 204//35 197//35 184//35
f 194//35 185//35 195//35
f 184//35 196//35 185//35
f 191//35 205//35 87//35
f 205//35 189//35 87//35
f 206//35 116//35 188//35
f 206//35 202//35 116//35
f 87//50 22//50 185//50
f 146//43 186//43 185//43
f 184//40 167//40 116//40
f 25//40 92//40 175//40
f 92//40 116//40 175//40
f 190//51 160//51 187//51
f 161//52 205//52 179//52
f 179//53 191//53 178//53
f 178//54 192//54 164//54
f 193//55 162//55 164//55
f 200//56 174//56 177//56
f 174//57 200//57 201//57
f 174//57 201//57 173//57
f 201//58 202//58 173//58
f 180//59 188//59 181//59
f 181//51 187//51 160//51
f 160//60 190//60 159//60
f 159//61 189//61 161//61
f 191//52 179//52 205//52
f 191//53 192//53 178//53
f 195//62 165//62 194//62
f 196//63 170//63 165//63
f 196//63 165//63 195//63
f 169//64 170//64 197//64
f 196//64 197//64 170//64
f 197//65 204//65 169//65
f 168//65 169//65 204//65
f 168//66 204//66 203//66
f 168//66 203//66 166//66
f 171//67 166//67 199//67
f 203//67 199//67 166//67
f 199//68 198//68 171//68
f 177//68 171//68 198//68
f 198//56 200//56 177//56
f 172//58 173//58 202//58
f 176//69 172//69 206//69
f 202//69 206//69 172//69
f 180//70 176//70 206//70
f 187//59 181//59 188//59
f 159//60 190//60 189//60
f 205//61 161//61 189//61
f 193//54 164//54 192//54
f 194//55 162//55 193//55
f 162//62 194//62 165//62
f 188//70 180//70 206//70
